<svg width="35" height="50" viewBox="0 0 35 50" fill="none" xmlns="http://www.w3.org/2000/svg">
<path d="M30.6608 3.74242C29.8242 2.99359 30.3489 1.67566 31.6818 1.18143C31.9796 1.06162 32.2774 0.971764 32.3483 0.956787C32.5468 0.956787 32.7311 1.70561 32.7311 2.51434C32.7311 3.17331 32.6602 3.38298 32.3625 3.71246C31.8803 4.22167 31.1855 4.23664 30.6608 3.74242Z" fill="#34A0A4"/>
<path d="M26.2649 4.34148C25.4283 3.59266 25.953 2.27472 27.2859 1.7805C27.5837 1.66069 27.8815 1.57083 27.9524 1.55585C28.1509 1.55585 28.3353 2.30468 28.3353 3.11341C28.3353 3.77237 28.2643 3.98205 27.9666 4.31153C27.4844 4.82073 26.7896 4.83571 26.2649 4.34148Z" fill="#34A0A4"/>
<path fill-rule="evenodd" clip-rule="evenodd" d="M20.5644 3.20327C20.3943 3.27815 20.139 3.57768 20.0114 3.86223C19.8129 4.3265 19.6994 4.40139 19.1322 4.47627C12.8503 5.37486 8.08576 9.9427 7.56109 15.5888C7.41929 17.1164 7.75962 17.7305 8.76642 17.7305C9.33363 17.7305 9.7165 17.3261 10.0001 16.3826C10.3688 15.2144 11.092 14.6902 12.4675 14.6154C13.7153 14.5405 14.5236 14.84 15.2043 15.6487C15.5872 16.0831 15.7148 16.3676 15.7148 16.772C15.7148 17.9701 16.5514 18.674 17.4873 18.2696C17.9694 18.045 18.012 17.9701 18.3381 16.4725C18.4374 15.9633 19.3166 14.9748 19.5718 15.0647C19.7136 15.1246 19.7703 17.0565 19.7987 24.1704C19.8129 30.5354 19.8696 33.2611 19.983 33.4109C20.1958 33.6655 21.9683 33.6805 22.2094 33.4259C22.337 33.2911 22.3795 31.0446 22.3795 24.2153C22.3795 15.9483 22.3937 15.1695 22.6206 15.0796C22.7766 15.0197 23.0035 15.1545 23.3154 15.5289C23.7408 16.0082 23.8685 16.3377 24.1379 17.6256C24.2088 17.9252 24.3789 18.1199 24.7193 18.2547C25.6552 18.674 26.4918 17.9701 26.4918 16.772C26.4918 16.113 27.1583 15.2594 27.9807 14.87C28.789 14.4806 30.1929 14.4956 30.987 14.8999C31.696 15.2594 32.0647 15.7536 32.2916 16.6372C32.4759 17.3411 32.8871 17.7305 33.4543 17.7305C34.447 17.7305 34.7873 17.1015 34.6455 15.5888C34.4328 13.3124 33.426 10.9461 31.9371 9.22382C31.0012 8.13054 30.7459 8.01073 30.7459 8.66969C30.7459 9.16392 30.122 9.64317 29.4697 9.64317C29.0443 9.64317 28.8457 9.55331 28.5621 9.17889C27.9949 8.475 28.1367 7.60636 28.9025 7.11213L29.3421 6.84256L28.6898 6.42322C27.2859 5.55458 25.3857 4.91059 22.9467 4.44632C22.4504 4.35646 22.2944 4.25162 22.2661 4.012C22.181 3.33805 21.2451 2.90374 20.5644 3.20327ZM25.9388 6.21354C26.0239 6.39326 26.0948 6.94739 26.1089 7.44162C26.1089 8.23537 26.0664 8.38514 25.7261 8.69965C25.1305 9.22382 24.3506 9.17889 23.8685 8.56486C23.5565 8.19044 23.4998 7.98077 23.5707 7.57641C23.6699 6.93242 23.8401 6.70777 24.6342 6.27345C25.4425 5.82416 25.7261 5.80918 25.9388 6.21354ZM27.0732 10.5567C27.1583 10.7365 27.2292 11.2906 27.2434 11.7848C27.2434 12.5786 27.2008 12.7283 26.8605 13.0428C26.2649 13.567 25.485 13.5221 25.0029 12.908C24.6909 12.5336 24.6342 12.324 24.7051 11.9196C24.8044 11.2756 24.9745 11.051 25.7686 10.6166C26.5769 10.1673 26.8605 10.1524 27.0732 10.5567ZM32.1781 11.1558C32.2632 11.3355 32.3341 11.8896 32.3483 12.3839C32.3483 13.1776 32.3057 13.3274 31.9654 13.6419C31.3698 14.1661 30.5899 14.1211 30.1078 13.5071C29.7958 13.1327 29.7391 12.923 29.81 12.5187C29.9093 11.8747 30.0794 11.65 30.8735 11.2157C31.6818 10.7664 31.9654 10.7514 32.1781 11.1558Z" fill="#34A0A4"/>
<path d="M32.9297 7.78608C32.093 7.03725 32.6177 5.71932 33.9507 5.22509C34.2484 5.10528 34.5462 5.01542 34.6171 5.00045C34.8157 5.00045 35 5.74927 35 6.558C35 7.21697 34.9291 7.42664 34.6313 7.75612C34.1492 8.26533 33.4543 8.2803 32.9297 7.78608Z" fill="#34A0A4"/>
<path d="M29.966 6.60293C29.4555 6.73772 29.4839 6.85753 30.122 7.36674C30.675 7.80105 30.7459 7.83101 30.7459 7.56143C30.7459 7.17204 30.4907 6.4981 30.363 6.51308C30.3484 6.51618 30.3294 6.51992 30.3072 6.52431C30.2223 6.5411 30.0897 6.56731 29.966 6.60293Z" fill="#34A0A4"/>
<path fill-rule="evenodd" clip-rule="evenodd" d="M0.470935 26.6864C0.385853 20.8456 0.400033 20.2915 0.612738 20.1567C0.754541 20.0818 1.7897 20.0518 2.92413 20.0818C4.76757 20.1267 5.06536 20.1717 5.77437 20.5161C7.10732 21.1601 7.88724 22.1785 8.18503 23.6762C8.38355 24.7245 8.25593 25.6231 7.7029 26.7763C7.27749 27.6899 7.26331 27.7348 7.49019 28.0792C7.94396 28.7532 8.0574 29.4421 8.0574 31.5388V33.6206L5.59003 33.5307L5.57585 32.033C5.54749 29.8315 5.53331 29.7416 5.22134 29.4122C4.99446 29.1725 4.75339 29.1126 3.94511 29.1126H2.95249V33.4558H1.74716C0.882164 33.4558 0.541836 33.4109 0.541836 33.2611C0.541836 33.1713 0.513476 30.2059 0.470935 26.6864ZM4.93773 26.0874C5.95872 25.3685 6.00126 23.766 5.02282 23.137C4.71085 22.9273 4.3138 22.8225 3.83167 22.8225C2.93831 22.8225 2.92413 22.8824 2.98085 24.9192L3.02339 26.342L3.73241 26.3869C4.29962 26.4169 4.55487 26.357 4.93773 26.0874Z" fill="#34A0A4"/>
<path fill-rule="evenodd" clip-rule="evenodd" d="M14.1408 20.1267C11.8861 20.5311 10.3688 22.2983 10.0285 24.8893C9.95757 25.4434 9.91502 27.615 9.9292 29.7117L9.97175 33.5307L12.4817 33.6206L12.3824 32.6621C12.3257 32.1229 12.3257 31.4789 12.3824 31.2243L12.4817 30.7451L14.7789 30.8349V32.1828L14.7931 33.5307L17.2746 33.6206V20.4412L16.9626 20.2166C16.6223 19.962 15.3177 19.9171 14.1408 20.1267ZM14.7789 24.425C14.8214 25.3985 14.8214 26.6116 14.7789 27.1357L14.6796 28.0792L12.3824 27.9894L12.4249 26.4169C12.4675 24.1554 12.8503 23.2568 13.9422 22.8524L13.9595 22.8461C14.6796 22.5827 14.6804 22.5825 14.7789 24.425Z" fill="#34A0A4"/>
<path d="M24.5491 26.8961C24.5208 23.2418 24.5491 20.1717 24.5917 20.0968C24.7335 19.8721 26.5344 20.0518 27.6404 20.4113C28.1935 20.591 28.789 20.9355 29.1435 21.25C29.4697 21.5345 29.7958 21.7741 29.8809 21.7741C29.9802 21.7741 30.0369 21.4297 30.0369 20.8755V19.962L32.3766 20.0518L32.4192 26.8212L32.4475 33.6056H30.0794L29.9944 31.1644C29.8809 27.9744 29.6257 26.5666 28.9166 25.0839C28.5621 24.3651 27.527 23.2718 27.1866 23.2718C26.9314 23.2718 26.9172 23.4815 26.9172 28.4387V33.6206L24.6058 33.5307L24.5491 26.8961Z" fill="#34A0A4"/>
<path d="M6.00126 36.0018C3.93093 36.1815 2.35692 37.14 1.23667 38.8773C0.485115 40.0455 0.158968 40.959 0.0313449 42.1721C-0.351524 46.1709 2.82487 49.7802 6.72445 49.7802C7.80216 49.7802 7.9156 49.6454 7.9156 48.3874C7.9156 47.7284 7.8447 47.2192 7.74544 47.1144C7.64617 47.0096 7.27749 46.9347 6.92298 46.9347C6.07216 46.9347 4.89519 46.5603 4.20036 46.081C3.5197 45.6018 2.66888 43.8645 2.66888 42.9359C2.66888 41.4233 3.50552 39.9107 4.68249 39.2817C4.98027 39.1169 5.78855 38.9073 6.46921 38.8174C7.14986 38.7275 7.74544 38.5778 7.80216 38.4879C7.85888 38.3981 7.9156 37.8439 7.9156 37.2449C7.9156 36.3313 7.87306 36.1366 7.64617 36.0018C7.49019 35.9269 7.34839 35.867 7.32003 35.882C7.30949 35.882 7.22264 35.8903 7.08128 35.9037L7.07992 35.9039L7.0793 35.9039C6.8399 35.9267 6.44551 35.9643 6.00126 36.0018Z" fill="#34A0A4"/>
<path d="M11.6308 42.906C11.6025 37.6792 11.645 36.2115 11.7726 36.1216C11.9428 36.0018 13.6586 36.0917 13.8713 36.2265C14.0131 36.3163 14.0273 49.2261 13.8997 49.4507C13.8146 49.5855 13.4743 49.6304 12.7227 49.6005L11.6734 49.5556L11.6308 42.906Z" fill="#34A0A4"/>
<path d="M17.7 49.6304H19.9689V47.1743C19.9689 45.0776 19.9972 44.7032 20.1958 44.6283C20.3234 44.5834 21.0182 44.5384 21.7556 44.5384H23.1027L23.0176 42.2171L20.0398 42.0673L19.9547 38.5928L20.7062 38.5029C21.1175 38.443 21.8265 38.3981 22.2803 38.3981H23.1027L23.0176 36.0767L20.3659 36.0318L17.7 36.0018V49.6304Z" fill="#34A0A4"/>
<path d="M27.7964 38.1584C28.5905 37.2598 29.4271 36.6758 30.519 36.2864C30.9161 36.1366 31.54 36.0168 31.8945 36.0168C32.238 36.0089 32.4006 36.0052 32.4921 36.0843C32.5743 36.1555 32.5991 36.2936 32.6461 36.556C32.8588 37.9338 32.6035 38.6976 31.9371 38.6976C31.384 38.6976 30.3063 39.3116 29.7249 39.9406C29.2003 40.5098 28.9166 41.1537 29.101 41.3484C29.1435 41.3934 29.8525 41.4533 30.6608 41.4683C31.4691 41.4832 32.1923 41.5431 32.2916 41.603C32.3766 41.6629 32.4475 42.1572 32.4475 42.8161C32.4475 44.209 32.3908 44.2389 30.4765 44.2389C28.8032 44.2389 28.7181 44.3437 29.5406 45.467C30.0369 46.1709 31.228 46.9347 31.8094 46.9347C32.4759 46.9347 32.6602 47.2791 32.6319 48.4473C32.6177 49.0314 32.5326 49.6005 32.4617 49.6754C32.249 49.9 30.8026 49.5855 29.8384 49.1063C28.8174 48.5971 27.4703 47.2941 26.9314 46.2907C25.5134 43.6249 25.8537 40.4199 27.7964 38.1584Z" fill="#34A0A4"/>
</svg>
