<svg width="123" height="159" viewBox="0 0 123 159" fill="none" xmlns="http://www.w3.org/2000/svg">
<path d="M107.751 9.07178C104.811 6.63313 106.655 2.3411 111.339 0.731595C112.385 0.341411 113.432 0.048773 113.681 0C114.379 0 115.027 2.43865 115.027 5.07239C115.027 7.2184 114.777 7.90123 113.731 8.97423C112.037 10.6325 109.595 10.6813 107.751 9.07178Z" fill="#F5EBE0"/>
<path d="M92.3025 11.0227C89.3623 8.58406 91.2061 4.29204 95.8905 2.68253C96.937 2.29234 97.9835 1.9997 98.2327 1.95093C98.9303 1.95093 99.5782 4.38958 99.5782 7.02332C99.5782 9.16934 99.329 9.85216 98.2825 10.9252C96.5881 12.5834 94.1463 12.6322 92.3025 11.0227Z" fill="#F5EBE0"/>
<path fill-rule="evenodd" clip-rule="evenodd" d="M72.2693 7.31596C71.6713 7.55982 70.7743 8.53528 70.3258 9.46197C69.6281 10.9739 69.2295 11.2178 67.2361 11.4617C45.1598 14.388 28.4157 29.2638 26.5718 47.6512C26.0735 52.6261 27.2695 54.6258 30.8077 54.6258C32.801 54.6258 34.1466 53.3089 35.1432 50.2362C36.4389 46.4319 38.9804 44.7248 43.8143 44.481C48.1996 44.2371 51.0402 45.2126 53.4322 47.8463C54.7777 49.2607 55.2262 50.1874 55.2262 51.5043C55.2262 55.4061 58.1664 57.6985 61.4554 56.3816C63.1498 55.65 63.2993 55.4061 64.4454 50.5288C64.7943 48.8706 67.884 45.6515 68.781 45.9442C69.2793 46.1393 69.4786 52.431 69.5783 75.5982C69.6281 96.3267 69.8275 105.203 70.2261 105.691C70.9736 106.52 77.2028 106.569 78.05 105.74C78.4985 105.301 78.648 97.985 78.648 75.7445C78.648 48.8218 78.6979 46.2856 79.4952 45.993C80.0434 45.7979 80.8407 46.2368 81.937 47.4561C83.4321 49.0169 83.8806 50.0899 84.8274 54.2844C85.0766 55.2598 85.6746 55.8939 86.8706 56.3328C90.1596 57.6985 93.0998 55.4061 93.0998 51.5043C93.0998 49.3583 95.442 46.5782 98.3323 45.3101C101.173 44.042 106.106 44.0908 108.897 45.4077C111.389 46.5782 112.684 48.1877 113.482 51.0653C114.13 53.3577 115.575 54.6258 117.568 54.6258C121.056 54.6258 122.252 52.5773 121.754 47.6512C121.007 40.2377 117.468 32.5316 112.236 26.9227C108.947 23.3623 108.05 22.9721 108.05 25.1181C108.05 26.7276 105.857 28.2883 103.565 28.2883C102.07 28.2883 101.372 27.9957 100.376 26.7764C98.3822 24.4841 98.8805 21.6552 101.572 20.0457L103.116 19.1678L100.824 17.8022C95.8905 14.9733 89.2128 12.8761 80.6414 11.3641C78.8972 11.0715 78.349 10.7301 78.2494 9.9497C77.9504 7.75492 74.6613 6.3405 72.2693 7.31596ZM91.1563 17.1193C91.4553 17.7046 91.7044 19.5092 91.7543 21.1187C91.7543 23.7037 91.6048 24.1914 90.4088 25.2157C88.3158 26.9227 85.5749 26.7764 83.8806 24.7767C82.7842 23.5574 82.5849 22.8745 82.8341 21.5577C83.1829 19.4604 83.7809 18.7288 86.5716 17.3144C89.4121 15.8512 90.4088 15.8025 91.1563 17.1193ZM95.143 31.2635C95.442 31.8488 95.6911 33.6534 95.741 35.2629C95.741 37.8479 95.5915 38.3356 94.3955 39.3598C92.3025 41.0669 89.5616 40.9206 87.8673 38.9209C86.7709 37.7015 86.5716 37.0187 86.8207 35.7018C87.1696 33.6046 87.7676 32.873 90.5583 31.4586C93.3988 29.9954 94.3955 29.9466 95.143 31.2635ZM113.083 33.2144C113.382 33.7997 113.631 35.6043 113.681 37.2138C113.681 39.7988 113.532 40.2865 112.336 41.3107C110.243 43.0178 107.502 42.8715 105.807 40.8718C104.711 39.6525 104.512 38.9696 104.761 37.6528C105.11 35.5555 105.708 34.8239 108.498 33.4095C111.339 31.9463 112.336 31.8976 113.083 33.2144Z" fill="#F5EBE0"/>
<path d="M115.724 22.2405C112.784 19.8018 114.628 15.5098 119.312 13.9003C120.359 13.5101 121.405 13.2175 121.654 13.1687C122.352 13.1687 123 15.6074 123 18.2411C123 20.3871 122.751 21.0699 121.704 22.143C120.01 23.8012 117.568 23.85 115.724 22.2405Z" fill="#F5EBE0"/>
<path d="M105.309 18.3874C103.515 18.8264 103.615 19.2166 105.857 20.8749C107.801 22.2893 108.05 22.3868 108.05 21.5089C108.05 20.2408 107.153 18.046 106.704 18.0948C106.653 18.1049 106.586 18.1171 106.508 18.1314C106.21 18.1861 105.744 18.2714 105.309 18.3874Z" fill="#F5EBE0"/>
<path fill-rule="evenodd" clip-rule="evenodd" d="M1.655 83.792C1.356 64.7706 1.40583 62.966 2.15334 62.527C2.65167 62.2831 6.28953 62.1856 10.2762 62.2831C16.7546 62.4295 17.8011 62.5758 20.2928 63.6976C24.9772 65.7948 27.718 69.1114 28.7645 73.9886C29.4622 77.4028 29.0137 80.3291 27.0702 84.0847C25.5752 87.0598 25.5253 87.2061 26.3227 88.3279C27.9173 90.5227 28.316 92.7663 28.316 99.5945V106.374L19.645 106.081L19.5951 101.204C19.4955 94.0344 19.4456 93.7417 18.3493 92.6687C17.5519 91.8884 16.7048 91.6933 13.8642 91.6933H10.3759V105.837H6.14003C3.10018 105.837 1.90417 105.691 1.90417 105.203C1.90417 104.911 1.8045 95.2537 1.655 83.792ZM17.3526 81.8411C20.9406 79.5 21.0901 74.2813 17.6516 72.2328C16.5553 71.55 15.1599 71.2086 13.4656 71.2086C10.3261 71.2086 10.2762 71.4037 10.4756 78.0368L10.6251 82.6702L13.1167 82.8166C15.1101 82.9141 16.0071 82.719 17.3526 81.8411Z" fill="#F5EBE0"/>
<path fill-rule="evenodd" clip-rule="evenodd" d="M49.6947 62.4294C41.7711 63.7463 36.4389 69.5015 35.2429 77.9393C34.9937 79.7439 34.8442 86.8159 34.8941 93.6442L35.0436 106.081L43.8641 106.374L43.5153 103.252C43.316 101.497 43.316 99.3994 43.5153 98.5702L43.8641 97.0095L51.9372 97.3021V101.692L51.987 106.081L60.7079 106.374V63.4537L59.6116 62.7221C58.4156 61.8929 53.8309 61.7466 49.6947 62.4294ZM51.9372 76.4273C52.0867 79.5975 52.0867 83.5482 51.9372 85.2552L51.5883 88.3279L43.5153 88.0353L43.6648 82.9141C43.8143 75.5494 45.1598 72.623 48.997 71.3061L49.0575 71.2856C51.5884 70.4278 51.5911 70.4269 51.9372 76.4273Z" fill="#F5EBE0"/>
<path d="M86.2726 84.4749C86.1729 72.5742 86.2726 62.5758 86.4221 62.3319C86.9204 61.6003 93.2493 62.1856 97.1363 63.3561C99.0798 63.9414 101.173 65.0632 102.419 66.0874C103.565 67.0141 104.711 67.7945 105.01 67.7945C105.359 67.7945 105.558 66.6727 105.558 64.8681V61.893L113.781 62.1856L113.93 84.231L114.03 106.325H105.708L105.409 98.3752C105.01 87.9865 104.113 83.4018 101.621 78.5733C100.376 76.2322 96.7377 72.6718 95.5416 72.6718C94.6446 72.6718 94.5948 73.3546 94.5948 89.4985V106.374L86.4719 106.081L86.2726 84.4749Z" fill="#F5EBE0"/>
<path d="M21.0901 114.129C13.8144 114.714 8.28288 117.836 4.34602 123.493C1.70483 127.298 0.558658 130.273 0.110155 134.223C-1.23535 147.246 9.92739 159 23.6316 159C27.419 159 27.8177 158.561 27.8177 154.464C27.8177 152.318 27.5685 150.66 27.2197 150.318C26.8708 149.977 25.5752 149.733 24.3293 149.733C21.3393 149.733 17.2031 148.514 14.7613 146.953C12.3692 145.392 9.37922 139.735 9.37922 136.711C9.37922 131.785 12.3194 126.859 16.4556 124.81C17.5021 124.274 20.3426 123.591 22.7346 123.298C25.1267 123.006 27.2197 122.518 27.419 122.225C27.6183 121.933 27.8177 120.128 27.8177 118.177C27.8177 115.202 27.6682 114.568 26.8708 114.129C26.3227 113.885 25.8243 113.69 25.7247 113.739C25.6876 113.739 25.3824 113.766 24.8856 113.809L24.8809 113.81L24.8787 113.81C24.0374 113.884 22.6514 114.007 21.0901 114.129Z" fill="#F5EBE0"/>
<path d="M40.8741 136.613C40.7744 119.591 40.9239 114.812 41.3724 114.519C41.9704 114.129 48.0003 114.421 48.7478 114.86C49.2462 115.153 49.296 157.195 48.8475 157.927C48.5485 158.366 47.3525 158.512 44.7113 158.415L41.0236 158.268L40.8741 136.613Z" fill="#F5EBE0"/>
<path d="M62.2029 158.512H70.1763V150.513C70.1763 143.685 70.276 142.466 70.9736 142.222C71.4221 142.076 73.864 141.929 76.4553 141.929H81.1895L80.8905 134.37L70.4255 133.882L70.1265 122.567L72.7677 122.274C74.2128 122.079 76.7045 121.933 78.2992 121.933H81.1895L80.8905 114.373L71.5716 114.226L62.2029 114.129V158.512Z" fill="#F5EBE0"/>
<path d="M97.6845 121.152C100.475 118.226 103.415 116.324 107.253 115.056C108.648 114.568 110.841 114.178 112.086 114.178C113.294 114.152 113.865 114.14 114.186 114.398C114.476 114.629 114.562 115.079 114.728 115.933C115.475 120.421 114.578 122.908 112.236 122.908C110.292 122.908 106.505 124.908 104.462 126.956C102.618 128.81 101.621 130.907 102.269 131.541C102.419 131.687 104.91 131.882 107.751 131.931C110.591 131.98 113.133 132.175 113.482 132.37C113.781 132.565 114.03 134.175 114.03 136.321C114.03 140.856 113.831 140.954 107.103 140.954C101.223 140.954 100.924 141.295 103.814 144.953C105.558 147.246 109.744 149.733 111.787 149.733C114.13 149.733 114.777 150.855 114.678 154.659C114.628 156.561 114.329 158.415 114.08 158.659C113.332 159.39 108.249 158.366 104.861 156.805C101.273 155.147 96.5383 150.904 94.6446 147.636C89.6613 138.954 90.8573 128.517 97.6845 121.152Z" fill="#F5EBE0"/>
</svg>
